<svg width="217" height="217" viewBox="0 0 217 217" fill="none" xmlns="http://www.w3.org/2000/svg">
<path d="M106.833 1.59985H1.75586V106.889H106.833V1.59985Z" fill="#AAAAAA"/>
<path d="M105.237 3.20727V105.289H3.36096V3.20727H105.237ZM108.438 0H0.160156V108.496H108.438V0Z" fill="#AAAAAA"/>
<path d="M213.514 3.20727V105.289H111.638V3.20727H213.514ZM119.539 28.1636C119.501 28.5862 119.478 29.0314 119.478 29.5295V78.9743C119.478 79.4724 119.501 79.9176 119.539 80.3402C120.232 89.9394 128.29 97.4482 137.908 97.4482H187.253C196.87 97.4482 204.929 89.9394 205.622 80.3402C205.659 79.9176 205.682 79.4724 205.682 78.9743V29.5295C205.682 29.0314 205.659 28.5862 205.622 28.1636C204.929 18.5644 196.87 11.0556 187.253 11.0556H137.908C128.29 11.0556 120.232 18.5644 119.539 28.1636ZM180.587 28.2768C184.722 28.2768 188.187 31.5067 188.473 35.6346V35.6875L188.48 35.7403C188.495 35.861 188.503 36.0195 188.503 36.2006V72.2881C188.503 72.4767 188.503 72.6277 188.48 72.7484V72.8012L188.473 72.8541C188.187 76.982 184.722 80.2119 180.587 80.2119H144.573C140.438 80.2119 136.974 76.982 136.687 72.8541V72.8012L136.68 72.7484C136.665 72.6277 136.657 72.4767 136.657 72.2881V36.2006C136.657 36.012 136.657 35.861 136.68 35.7403V35.6875L136.687 35.6346C136.974 31.5067 140.438 28.2768 144.573 28.2768H180.587ZM216.715 0H108.438V108.496H216.715V0ZM137.908 94.2258C129.864 94.2258 123.274 87.9697 122.724 80.0535C122.687 79.6912 122.672 79.329 122.672 78.9667V29.5295C122.672 29.1673 122.687 28.8051 122.724 28.4428C123.274 20.5265 129.864 14.2705 137.908 14.2705H187.253C195.304 14.2705 201.886 20.5265 202.436 28.4428C202.473 28.8051 202.489 29.1673 202.489 29.5295V78.9743C202.489 79.3365 202.473 79.6988 202.436 80.061C201.886 87.9773 195.311 94.2334 187.253 94.2334H137.908V94.2258ZM180.587 25.062H144.573C138.706 25.062 133.893 29.6276 133.494 35.4083C133.464 35.6724 133.456 35.9365 133.456 36.2006V72.2881C133.456 72.5522 133.464 72.8163 133.494 73.0805C133.893 78.8611 138.706 83.4267 144.573 83.4267H180.587C186.462 83.4267 191.267 78.8611 191.666 73.0805C191.696 72.8163 191.704 72.5522 191.704 72.2881V36.2006C191.704 35.9365 191.696 35.6724 191.666 35.4083C191.267 29.6276 186.462 25.062 180.587 25.062Z" fill="#3472E5"/>
<path d="M109.757 112.631L213.115 215.116L109.757 215.116L109.757 112.631Z" fill="#AAAAAA"/>
<path d="M209.225 213.518L111.363 213.518L111.363 116.482L209.225 213.518ZM217 216.709L108.153 108.78L108.153 216.709L217 216.709Z" fill="#B2B2B2"/>
<ellipse cx="54.3303" cy="162.845" rx="54.3303" ry="54.155" fill="#3472E5"/>
</svg>
