<svg width="160" height="396" viewBox="0 0 160 396" fill="none" xmlns="http://www.w3.org/2000/svg">
<g clip-path="url(#clip0_5018_21)">
<path d="M81.168 157.933V82.9513L156.019 157.933H81.168Z" fill="white"/>
<path d="M82.3304 85.7744L153.206 156.769H82.3304V85.7744ZM80 80.1337V159.098H158.832L80 80.1337Z" fill="white"/>
<path d="M156.502 319.37V365.869C156.502 381.198 144.055 393.666 128.752 393.666H82.3307V347.167C82.3307 331.838 94.7776 319.37 110.081 319.37H156.502ZM158.838 317.036H110.087C93.4726 317.036 80.0059 330.525 80.0059 347.167V396H128.757C145.371 396 158.838 382.511 158.838 365.869V317.036Z" fill="#3472E5"/>
<path d="M119.419 236.897C98.3249 236.897 81.168 219.711 81.168 198.582C81.168 177.453 98.3249 160.267 119.419 160.267C140.513 160.267 157.67 177.453 157.67 198.582C157.67 219.711 140.513 236.897 119.419 236.897Z" fill="#3472E5"/>
<path d="M119.419 161.437C139.866 161.437 156.507 178.101 156.507 198.588C156.507 219.074 139.871 235.738 119.419 235.738C98.9664 235.738 82.3304 219.074 82.3304 198.588C82.3304 178.101 98.9664 161.437 119.419 161.437ZM119.419 159.103C97.6504 159.103 80 176.783 80 198.588C80 220.392 97.6504 238.072 119.419 238.072C141.187 238.072 158.838 220.392 158.838 198.588C158.838 176.783 141.187 159.103 119.419 159.103Z" fill="#3472E5"/>
<path d="M82.3416 77.6295L82.3417 3.36721C101.9 3.9494 120.209 11.8584 134.109 25.7761C148.009 39.6938 155.899 58.0328 156.48 77.6295L82.3416 77.6295ZM80.0058 79.9638L158.838 79.9638C158.838 36.3544 123.542 1 80.0058 1L80.0058 79.9638Z" fill="white"/>
<path d="M77.6697 161.437V235.733H3.49833V161.437H77.6697ZM9.24473 179.601C9.21732 179.908 9.20087 180.232 9.20087 180.595V216.581C9.20087 216.938 9.21732 217.267 9.24473 217.575C9.74919 224.561 15.6162 230.026 22.6183 230.026H58.5443C65.5463 230.026 71.4133 224.561 71.9178 217.575C71.9452 217.267 71.9617 216.943 71.9617 216.581V180.595C71.9617 180.232 71.9452 179.908 71.9178 179.601C71.4133 172.614 65.5463 167.149 58.5443 167.149H22.6238C15.6217 167.149 9.75467 172.614 9.25022 179.601M53.6916 179.683C56.7019 179.683 59.2242 182.034 59.4325 185.038V185.076L59.438 185.115C59.449 185.208 59.4545 185.318 59.4545 185.455V211.72C59.4545 211.857 59.4545 211.967 59.438 212.06V212.099L59.4325 212.137C59.2242 215.142 56.7019 217.492 53.6916 217.492H27.4709C24.4606 217.492 21.9384 215.142 21.73 212.137V212.099L21.7245 212.06C21.7135 211.967 21.7081 211.857 21.7081 211.725V185.461C21.7081 185.324 21.7081 185.214 21.7245 185.126V185.087L21.73 185.049C21.9384 182.045 24.4606 179.694 27.4709 179.694H53.6916M80 159.103H1.16797V238.067H80V159.103ZM22.6238 227.681C16.7622 227.681 11.9699 223.128 11.5696 217.366C11.5422 217.102 11.5312 216.839 11.5312 216.575V180.589C11.5312 180.326 11.5422 180.062 11.5696 179.798C11.9699 174.037 16.7567 169.484 22.6238 169.484H58.5497C64.4058 169.484 69.2036 174.037 69.6039 179.798C69.6313 180.062 69.6423 180.326 69.6423 180.589V216.575C69.6423 216.839 69.6313 217.102 69.6039 217.366C69.2036 223.128 64.4058 227.681 58.5497 227.681H22.6238ZM53.6916 177.343H27.4709C23.194 177.343 19.6957 180.666 19.4051 184.873C19.3832 185.065 19.3777 185.258 19.3777 185.45V211.714C19.3777 211.907 19.3832 212.099 19.4051 212.291C19.6957 216.498 23.194 219.821 27.4709 219.821H53.6916C57.963 219.821 61.4668 216.498 61.7574 212.291C61.7794 212.099 61.7848 211.907 61.7848 211.714V185.45C61.7848 185.258 61.7794 185.065 61.7574 184.873C61.4668 180.666 57.963 177.343 53.6916 177.343Z" fill="white"/>
<path d="M78.8318 2.33426H2.33008V78.9638H78.8318V2.33426Z" fill="#3472E5"/>
<path d="M77.6697 3.50413V77.7994H3.49833V3.50413H77.6697ZM80 1.16988H1.16797V80.1337H80V1.16988Z" fill="#3472E5"/>
<path d="M40.5809 394.83C19.487 394.83 2.33008 377.644 2.33008 356.515C2.33008 335.386 19.487 318.201 40.5809 318.201C61.6748 318.201 78.8318 335.386 78.8318 356.515C78.8318 377.644 61.6748 394.83 40.5809 394.83Z" fill="#3472E5"/>
<path d="M40.5809 319.37C61.0278 319.37 77.6693 336.034 77.6693 356.521C77.6693 377.007 61.0333 393.671 40.5809 393.671C20.1285 393.671 3.49247 377.007 3.49247 356.521C3.49247 336.034 20.1285 319.37 40.5809 319.37ZM40.5809 317.036C18.8126 317.036 1.16211 334.716 1.16211 356.521C1.16211 378.326 18.8126 396.005 40.5809 396.005C62.3492 396.005 79.9997 378.326 79.9997 356.521C79.9997 334.716 62.3492 317.036 40.5809 317.036Z" fill="#3472E5"/>
<path d="M74.3743 82.468L3.49833 153.462V82.468H74.3743ZM80 80.1337H1.16797V159.098L80 80.1337Z" fill="white"/>
<path d="M77.6697 240.401V314.663C58.1111 314.081 39.8027 306.172 25.9027 292.255C12.0028 278.337 4.11245 259.998 3.53123 240.401H77.6697ZM80 238.067H1.16797C1.16797 281.676 36.4634 317.031 80 317.031V238.067Z" fill="#3472E5"/>
<path d="M156.502 240.334V314.63H82.3307V240.334H156.502ZM88.0826 258.498C88.0552 258.805 88.0388 259.129 88.0388 259.492V295.478C88.0388 295.84 88.0552 296.164 88.0826 296.472C88.5871 303.458 94.4541 308.923 101.456 308.923H137.382C144.384 308.923 150.251 303.458 150.756 296.472C150.783 296.164 150.8 295.84 150.8 295.478V259.492C150.8 259.129 150.783 258.805 150.756 258.498C150.251 251.511 144.384 246.046 137.382 246.046H101.456C94.4541 246.046 88.5871 251.511 88.0826 258.498ZM132.53 258.58C135.54 258.58 138.062 260.931 138.27 263.935V263.973L138.276 264.012C138.287 264.105 138.292 264.215 138.292 264.352V290.617C138.292 290.754 138.292 290.864 138.276 290.957V290.996L138.27 291.034C138.062 294.039 135.54 296.389 132.53 296.389H106.309C103.299 296.389 100.776 294.039 100.568 291.034V290.996L100.562 290.957C100.551 290.864 100.546 290.754 100.546 290.617V264.352C100.546 264.215 100.546 264.105 100.562 264.012V263.973L100.568 263.935C100.776 260.931 103.299 258.58 106.309 258.58H132.53ZM158.838 238H80.0059V316.964H158.838V238ZM101.456 306.578C95.5946 306.578 90.8023 302.025 90.402 296.263C90.3746 295.999 90.3636 295.736 90.3636 295.472V259.492C90.3636 259.228 90.3746 258.964 90.402 258.701C90.8023 252.939 95.5891 248.386 101.456 248.386H137.382C143.238 248.386 148.036 252.934 148.436 258.701C148.464 258.964 148.475 259.228 148.475 259.492V295.478C148.475 295.741 148.464 296.005 148.436 296.269C148.036 302.03 143.238 306.583 137.382 306.583H101.456V306.578ZM132.53 256.24H106.309C102.032 256.24 98.5336 259.563 98.243 263.77C98.2211 263.962 98.2156 264.155 98.2156 264.347V290.611C98.2156 290.804 98.2211 290.996 98.243 291.188C98.5336 295.395 102.032 298.718 106.309 298.718H132.53C136.801 298.718 140.305 295.395 140.595 291.188C140.617 290.996 140.623 290.804 140.623 290.611V264.347C140.623 264.155 140.617 263.962 140.595 263.77C140.305 259.563 136.801 256.24 132.53 256.24Z" fill="white"/>
</g>
<defs>
<clipPath id="clip0_5018_21">
<rect width="160" height="396" fill="white"/>
</clipPath>
</defs>
</svg>
