<svg width="150" height="66" viewBox="0 0 150 66" fill="none" xmlns="http://www.w3.org/2000/svg">
<path d="M86.1371 7C85.7487 7.09164 85.3603 7.18575 84.9669 7.27987C84.957 7.28234 84.9446 7.2873 84.9323 7.28977C78.6211 8.92688 53.0795 16.1019 29 30.8334C30.2914 38.0678 32.0504 42.8305 34.1484 49C36.4839 47.2093 38.9183 45.4509 41.4492 43.7221C47.2309 39.7668 53.5001 35.9899 60.1848 32.4779C63.3243 30.8284 66.5529 29.2384 69.8656 27.7152C74.7023 25.4911 79.529 23.4973 84.3162 21.729C87.2306 20.6516 90.1277 19.6609 93 18.7569C90.7759 13.5682 89.4201 10.4723 86.1371 7Z" fill="#3472E5"/>
<path d="M149.998 33.187C149.998 37.598 148.005 41.8097 144.393 45.6548C144.215 45.8443 144.034 46.0312 143.848 46.2182C143.662 46.4076 143.474 46.5921 143.28 46.7791C142.931 47.1161 142.564 47.4532 142.187 47.7804C142.073 47.8763 141.966 47.9698 141.852 48.0682H141.85C141.85 48.0682 141.847 48.0756 141.843 48.0781C141.84 48.0854 141.84 48.0879 141.835 48.0854C141.53 48.3462 141.215 48.607 140.898 48.8653C140.762 48.976 140.618 49.0867 140.479 49.1949C139.674 49.8297 138.823 50.4447 137.929 51.0425C137.678 51.2122 137.423 51.3795 137.163 51.5493C136.925 51.7043 136.687 51.8543 136.446 52.0044C135.903 52.3414 135.351 52.6735 134.778 53.0032C134.211 53.3353 133.626 53.6576 133.028 53.9749C126.75 57.3281 118.976 60.1252 110.162 62.177C99.6745 64.6174 87.7047 66 74.9963 66C74.3865 66 73.7817 65.9975 73.1769 65.9902C72.8943 65.9877 72.6117 65.9828 72.3341 65.9779C72.0887 65.9779 71.8433 65.9705 71.6004 65.9656C71.4814 65.9656 71.3625 65.9631 71.246 65.9582C70.9708 65.9508 70.6982 65.9459 70.4206 65.936C70.366 65.9385 70.309 65.936 70.2545 65.9336C69.8752 65.9262 69.496 65.9139 69.1192 65.9016C68.9383 65.8942 68.7524 65.8893 68.5714 65.8819C67.9344 65.8598 67.3023 65.8303 66.6727 65.8007C66.0357 65.7688 65.4011 65.7368 64.7691 65.6974C64.3774 65.6753 63.9833 65.6482 63.5941 65.6211C63.4157 65.6113 63.2397 65.6015 63.0662 65.5867C62.853 65.5744 62.6349 65.5572 62.4192 65.5424C62.3845 65.54 62.3473 65.54 62.3151 65.535C61.7401 65.4932 61.1724 65.444 60.6048 65.3973C59.9405 65.3432 59.2787 65.2816 58.6193 65.2177C57.898 65.1463 57.1817 65.0725 56.4703 64.9914C56.2745 64.9692 56.0836 64.9495 55.8927 64.9274C55.7019 64.9077 55.511 64.8856 55.3177 64.861C54.9533 64.8192 54.5914 64.7749 54.2295 64.7281C54.0411 64.706 53.8552 64.6838 53.6718 64.6568C53.1785 64.5953 52.6927 64.5289 52.2044 64.46C52.197 64.46 52.192 64.46 52.1871 64.4575C51.617 64.3812 51.0468 64.2976 50.4842 64.209C50.1595 64.1598 49.8347 64.1131 49.515 64.0614C48.4541 63.8941 47.4031 63.717 46.3645 63.5276C46.0051 63.4636 45.6432 63.3947 45.2838 63.3283C44.9244 63.2619 44.5675 63.193 44.2105 63.1217C43.9304 63.0675 43.6528 63.011 43.3727 62.9544C43.1595 62.9101 42.9439 62.8683 42.7332 62.8215C42.6142 62.7969 42.4903 62.7699 42.3688 62.7453C42.2771 62.728 42.1904 62.7108 42.0986 62.6862C41.7442 62.6124 41.3947 62.5337 41.0452 62.4574C40.6982 62.3812 40.3536 62.3024 40.0091 62.2213C39.6645 62.145 39.32 62.0614 38.9804 61.9802C38.7499 61.9211 38.5169 61.8645 38.2864 61.8129C38.2864 61.8129 38.2839 61.8121 38.2789 61.8104C38.2789 61.8104 38.2715 61.808 38.269 61.808C38.2665 61.808 38.2616 61.808 38.2591 61.8055C38.1947 61.7932 38.1327 61.776 38.0682 61.7563C37.7534 61.68 37.4461 61.6013 37.1338 61.5201C36.5562 61.375 35.9812 61.2249 35.4135 61.065C35.0665 60.9715 34.7195 60.8756 34.3749 60.7772C33.9982 60.6714 33.6289 60.5656 33.2546 60.4549C32.7861 60.3196 32.3275 60.1769 31.869 60.0367C31.4575 59.9112 31.0485 59.7833 30.642 59.6504C29.8265 59.3897 29.0283 59.1215 28.2451 58.8484C26.6612 58.2974 25.1343 57.7192 23.6594 57.1091H23.6569C17.5965 54.6195 12.4779 51.692 8.57143 48.4421C7.87491 47.8616 7.21557 47.2687 6.59589 46.6684C2.35975 42.5526 0 37.9891 0 33.187C0 30.3751 0.808064 27.6468 2.33 25.0464C6.11005 18.5665 14.2998 12.859 25.4218 8.57104C30.3247 6.68168 35.8002 5.06292 41.7169 3.7812C42.2424 3.66557 42.7753 3.55487 43.3107 3.44662C43.4124 3.42694 43.5115 3.4048 43.6132 3.38512C43.9106 3.32362 44.2105 3.26703 44.5129 3.20799C44.6617 3.17847 44.8104 3.14895 44.9641 3.12189C45.1549 3.08253 45.3458 3.04808 45.5391 3.01118C45.7895 2.96198 46.0398 2.9177 46.2927 2.87342C46.5257 2.82913 46.7636 2.78731 46.9991 2.74549C47.4899 2.66185 47.9782 2.5782 48.4764 2.49456C48.6425 2.46504 48.811 2.44044 48.9771 2.41337C49.1432 2.38385 49.3043 2.35925 49.4704 2.33219C49.8025 2.27807 50.1347 2.22641 50.4693 2.1772C50.4916 2.17474 50.5114 2.16982 50.5337 2.16736C50.8362 2.11816 51.141 2.07388 51.4434 2.03206C51.7483 1.98777 52.0557 1.94595 52.3606 1.90413C52.5217 1.88199 52.6828 1.85985 52.8439 1.83771C53.2975 1.7762 53.7536 1.71962 54.2097 1.66058C54.522 1.61876 54.8294 1.57939 55.1417 1.54495C55.454 1.50559 55.7688 1.47115 56.0787 1.43425C57.3577 1.2891 58.6516 1.15625 59.9603 1.04063C60.5205 0.988967 61.0832 0.944685 61.6508 0.897942C61.869 0.880722 62.0846 0.863501 62.3052 0.84874C62.6646 0.819219 63.0315 0.794618 63.3958 0.767556C63.7429 0.745415 64.0899 0.723274 64.4369 0.703593C64.8781 0.674072 65.3193 0.649471 65.763 0.62733C65.8969 0.617489 66.0332 0.610109 66.1646 0.605189C66.752 0.575667 67.3395 0.546146 67.9294 0.524005C68.6086 0.494483 69.2853 0.472342 69.9645 0.452661C70.5023 0.435441 71.0452 0.42314 71.588 0.4133C71.6946 0.410839 71.8012 0.405919 71.9127 0.405919C71.9375 0.403459 71.9673 0.403459 71.9945 0.403459H72.0466C72.4952 0.393619 72.9389 0.386238 73.3876 0.383778H73.4942C73.9949 0.381318 74.4956 0.376398 74.9988 0.376398C77.242 0.376398 79.4605 0.41822 81.6516 0.501864C89.7174 0.814298 97.4188 1.68272 104.548 3.02102C104.444 3.27195 104.347 3.52781 104.258 3.78366C104.005 4.53153 103.816 5.31139 103.702 6.11093C101.437 5.61399 99.0969 5.17116 96.6975 4.78985C92.5184 4.13054 88.1459 3.65327 83.6321 3.38512C81.0989 3.23259 78.521 3.14895 75.906 3.13419C75.6036 3.13173 75.2987 3.13173 74.9963 3.13173C68.4326 3.13173 62.0871 3.56717 56.1034 4.38147C52.2589 4.90055 48.5632 5.57954 45.0459 6.39876C44.9616 6.4209 44.8773 6.44058 44.7905 6.46027C44.6443 6.49225 44.5005 6.52423 44.3568 6.56113H44.3592C45.4945 8.83182 47.2271 13.0731 48.3797 16.7436C36.0753 22.1164 22.2738 29.4624 10.1876 39.0912C14.798 49.6255 31.5269 58.1768 53.4859 61.6062C55.4193 61.9088 57.3949 62.1721 59.4101 62.391C59.886 62.4451 60.3718 62.4968 60.8502 62.546C61.0262 62.5632 61.1997 62.578 61.3757 62.5952C61.403 62.5977 61.4327 62.6001 61.46 62.6026C61.5095 62.6075 61.5616 62.6124 61.6112 62.6173C61.6483 62.6198 61.688 62.6223 61.7252 62.6272C61.8392 62.6395 61.9557 62.6493 62.0697 62.6592C62.2036 62.6715 62.3325 62.6838 62.4614 62.6936C62.734 62.7182 63.0067 62.7428 63.2818 62.7649C63.3537 62.7723 63.4256 62.7748 63.495 62.7822C63.6189 62.7945 63.7404 62.8043 63.8693 62.8142C64.1841 62.8363 64.5014 62.8584 64.8211 62.8806C64.8732 62.883 64.9252 62.888 64.9798 62.8904C65.1384 62.9027 65.297 62.915 65.4557 62.9249C65.5424 62.9322 65.6366 62.9372 65.7283 62.9421C66.0035 62.9593 66.2761 62.9741 66.5537 62.9913C66.6727 63.0011 66.7967 63.0085 66.9206 63.0134C67.1511 63.0257 67.3816 63.038 67.6122 63.0528H67.6221C67.8204 63.0626 68.0137 63.0725 68.212 63.0774C68.4822 63.0946 68.7499 63.102 69.0201 63.1118C69.4638 63.129 69.9124 63.1438 70.3611 63.161C70.7304 63.1733 71.0972 63.1832 71.4666 63.1955H71.4988C71.593 63.1979 71.6897 63.1979 71.7839 63.2029C72.2523 63.2127 72.7159 63.2201 73.1868 63.225C73.2488 63.225 73.3058 63.2275 73.3678 63.2275C73.5239 63.2299 73.6801 63.2299 73.8387 63.2299C74.2204 63.2324 74.6121 63.2373 74.9963 63.2373C87.5485 63.2373 99.2803 61.6431 109.272 58.8755C117.856 56.499 125.151 53.2566 130.574 49.409C130.877 49.1974 131.172 48.9809 131.459 48.7644C131.734 48.5578 132.004 48.3511 132.27 48.1396C132.404 48.0362 132.532 47.9329 132.661 47.8247C132.79 47.7213 132.922 47.6155 133.048 47.5048C133.174 47.3991 133.301 47.2933 133.425 47.185C133.549 47.0792 133.67 46.9735 133.794 46.8628C133.918 46.757 134.037 46.6463 134.154 46.538C134.391 46.3215 134.624 46.1026 134.848 45.8812C135.001 45.736 135.145 45.5884 135.291 45.4408C135.366 45.367 135.44 45.2932 135.509 45.2145C135.727 44.9931 135.936 44.7667 136.136 44.5404C136.345 44.3141 136.543 44.0853 136.731 43.8565C136.826 43.7433 136.92 43.6277 137.014 43.5121C137.108 43.3965 137.2 43.2833 137.287 43.1677C137.378 43.052 137.465 42.9364 137.549 42.8208C137.896 42.3534 138.219 41.8835 138.516 41.4111C138.608 41.2635 138.697 41.111 138.786 40.9609C138.873 40.8133 138.957 40.6657 139.039 40.5157C139.143 40.3311 139.24 40.1442 139.334 39.9621C139.418 39.7948 139.5 39.6276 139.577 39.4553C139.659 39.2881 139.733 39.1208 139.805 38.9486C139.879 38.7788 139.949 38.6066 140.013 38.4369C140.068 38.3015 140.117 38.1638 140.167 38.0285C140.192 37.9621 140.216 37.8932 140.239 37.8292C140.291 37.6816 140.34 37.534 140.383 37.3888C140.435 37.2216 140.479 37.0567 140.526 36.8894C140.571 36.7246 140.613 36.5598 140.65 36.3999C140.658 36.3827 140.66 36.3704 140.663 36.3556C140.697 36.1957 140.73 36.0358 140.764 35.8783C140.767 35.866 140.772 35.8562 140.772 35.8439C140.873 35.315 140.948 34.7836 140.985 34.2522C140.995 34.1243 141.005 33.9914 141.007 33.8635C141.015 33.7774 141.017 33.6938 141.02 33.6052C141.022 33.4625 141.027 33.3247 141.027 33.187V33.1796C141.027 32.9385 141.02 32.6999 141.007 32.4588C140.99 32.1365 140.963 31.8142 140.923 31.4919C140.915 31.4157 140.903 31.337 140.893 31.2558C140.873 31.1279 140.854 31.0024 140.834 30.872C140.794 30.6284 140.747 30.3849 140.69 30.1413C140.687 30.1241 140.682 30.1094 140.68 30.0921C140.655 29.9741 140.625 29.8535 140.593 29.7354C140.563 29.61 140.531 29.4845 140.492 29.359C140.459 29.2336 140.422 29.1081 140.38 28.9826C140.345 28.8596 140.306 28.7342 140.261 28.6087C140.221 28.4857 140.177 28.3602 140.132 28.2372C140.09 28.1117 140.045 27.9887 139.993 27.8657C139.954 27.76 139.909 27.6492 139.864 27.5435C139.852 27.5139 139.84 27.482 139.825 27.4524C139.783 27.3417 139.733 27.2359 139.681 27.1277C139.629 27.0047 139.574 26.8842 139.513 26.7611C139.458 26.6381 139.396 26.5176 139.334 26.397C139.153 26.033 138.952 25.6713 138.737 25.3146C138.672 25.2039 138.608 25.0932 138.536 24.9825C138.494 24.9161 138.449 24.8472 138.407 24.7808C138.323 24.6528 138.238 24.52 138.152 24.3921C138.04 24.2272 137.929 24.0624 137.812 23.9C137.73 23.7819 137.646 23.6639 137.557 23.5482C137.485 23.4424 137.403 23.3391 137.326 23.2358C137.23 23.1079 137.128 22.9824 137.021 22.8569C136.935 22.7413 136.84 22.6257 136.739 22.5125C136.369 22.0623 135.965 21.6146 135.544 21.1767C135.368 20.9897 135.187 20.8027 134.999 20.6207C134.382 20.013 133.725 19.4152 133.023 18.8297C133.013 18.8174 133.003 18.8076 132.993 18.8051C131.432 17.2503 129.729 15.944 127.88 14.9083C126.958 14.3892 125.999 13.939 125.005 13.5577H125.002C124.977 13.5454 124.948 13.5331 124.92 13.5257C124.918 13.5257 124.91 13.5233 124.908 13.5183C124.841 13.4888 124.772 13.4642 124.707 13.4421C124.152 13.2403 123.592 13.0558 123.027 12.8984C121.559 14.741 119.286 15.9219 116.736 15.9219C116.676 15.9219 116.617 15.9219 116.557 15.9194C114.559 15.8776 112.745 15.11 111.362 13.8751C111.015 13.5626 110.692 13.2207 110.407 12.8541C109.344 11.5035 108.709 9.80356 108.709 7.96094C108.709 7.75921 108.717 7.55748 108.734 7.36313V7.34345C108.811 6.30282 109.094 5.32123 109.54 4.43313C109.594 4.3175 109.656 4.20434 109.718 4.09609C109.872 3.82302 110.04 3.55487 110.224 3.30394H110.226C111.679 1.3014 114.051 0 116.733 0C119.415 0 121.857 1.34322 123.307 3.39742C124.221 4.68898 124.757 6.26346 124.757 7.9634C124.757 8.18481 124.747 8.40376 124.727 8.62271C126.425 9.28202 128.053 9.97331 129.605 10.6966C130.138 10.9401 130.659 11.1935 131.177 11.4469H131.179C142.891 17.2307 150 24.8447 150 33.182L149.998 33.187Z" fill="#3472E5"/>
<path d="M73.2847 29.0209C69.0458 30.9979 64.9468 33.0871 61 35.2734C62.2371 39.7833 63.6828 44.3705 65.342 49C70.3933 40.8379 75.8104 33.6605 81.3698 27.6971C82.575 26.4058 83.785 25.1717 85 24C84.0501 24.3715 83.0953 24.7529 82.1405 25.1468C79.1976 26.3509 76.2399 27.6423 73.2847 29.0209Z" fill="#3472E5"/>
<path d="M82.925 38.5011C82.2398 38.1694 81.1744 38 79.7362 38C78.2979 38 77.0889 38.1411 76.1746 38.4187C75.2602 38.6963 74.4769 39.1738 73.8245 39.8466C73.1722 40.5171 72.5349 41.4933 71.9178 42.7683C71.2856 44.0645 70.9808 45.0924 71.0009 45.8546C71.0236 46.6144 71.3813 47.1625 72.0689 47.4989C72.2276 47.5766 72.4064 47.6448 72.6029 47.7012C73.2679 47.9012 74.157 48 75.2678 48C76.497 48 77.5322 47.9012 78.3735 47.7012C78.5322 47.6683 78.6808 47.6283 78.8218 47.5813C79.7311 47.3037 80.517 46.8309 81.1719 46.1534C81.8318 45.4782 82.4665 44.4996 83.0887 43.2152C83.7209 41.912 84.0282 40.8864 83.998 40.1336C83.9677 39.3785 83.6101 38.8351 82.9224 38.5011H82.925ZM79.2475 45.0713C78.9352 45.0948 78.5221 45.1136 78.0108 45.1277C77.4969 45.1395 76.9831 45.1466 76.4642 45.1466C75.9454 45.1466 75.4366 45.1395 74.9353 45.1277C74.4341 45.116 74.0361 45.0972 73.7414 45.0713L75.7539 40.9146C75.9378 40.9028 76.3207 40.8911 76.8949 40.877C77.4642 40.8652 78.0083 40.8581 78.5271 40.8581C79.046 40.8581 79.5901 40.8652 80.1518 40.877C80.716 40.8887 81.0837 40.9005 81.2575 40.9146L79.25 45.0713H79.2475Z" fill="#3472E5"/>
<path d="M89.0827 38L86.7797 42.1825C86.1263 43.365 85.5805 44.2325 85.1498 44.7775C85.0494 44.9025 84.9515 45.0225 84.8512 45.1375C84.5232 45.51 84.2075 45.815 83.8967 46.0475H86.6353C86.9168 45.8325 87.2252 45.53 87.558 45.1375C87.651 45.03 87.7513 44.9125 87.8492 44.785C88.302 44.22 88.8062 43.4175 89.3691 42.38L90.2061 40.8225H93.1307L91.2315 45.14L90.9427 45.7925H93.5688L93.8527 45.14L97 38.0025H89.0827V38ZM83.258 45.14L82 48H94.3544L95.6123 45.14H83.258Z" fill="#3472E5"/>
<path d="M101.5 45.3759L102.226 38.0024H99.4506L99.4091 38.1025L98.681 47.7653H101.403L102.314 45.3783H101.5V45.3759ZM107.11 38L101.588 45.3734L99.8049 47.7605L98.7103 49.2249C98.1533 49.2127 97.5865 49.1761 97.0026 49.1126C96.426 49.0418 95.8323 48.9564 95.2313 48.8417L94 51.8072C94.4104 51.8706 94.8624 51.917 95.3657 51.9512C95.8617 51.9805 96.3259 52 96.751 52C97.5132 52 98.1484 51.8999 98.6566 51.7096C99.1672 51.5167 99.6314 51.2141 100.056 50.8065C100.479 50.3964 101.004 49.7814 101.632 48.9589L102.553 47.7629L109.968 38.1196L110 38.0024H107.11V38Z" fill="#3472E5"/>
<path d="M113.264 38L109.522 44.9978C108.948 44.9857 108.227 44.896 107.356 44.7289L106.08 47.6923L106 47.8837C106.168 47.9225 106.431 47.9491 106.784 47.9685C107.137 47.9879 107.475 48 107.796 48C108.437 48 109.014 47.8982 109.53 47.6923C109.817 47.5808 110.087 47.4378 110.34 47.2634C111.041 46.7715 111.681 45.9792 112.266 44.8815L114.42 40.8519H117.996L114.907 47.6898H117.631L122 38H113.261H113.264Z" fill="#3472E5"/>
<path d="M131.821 41.6209C131.494 40.9607 130.764 40.6257 129.632 40.6257H126.085L127.269 38H124.474L120 48H126.683C127.76 48 128.69 47.7174 129.472 47.1623C130.26 46.6022 130.918 45.7319 131.454 44.5491C132.025 43.2588 132.15 42.2861 131.821 41.6184V41.6209ZM128.298 45.2968H123.983L124.878 43.3063H129.203L128.298 45.2968Z" fill="#3472E5"/>
</svg>
